<svg width="27" height="27" fill="none" xmlns="http://www.w3.org/2000/svg"><path fill-rule="evenodd" clip-rule="evenodd" d="m18.35 16.296 5.828 5.816a1.089 1.089 0 0 1-.774 1.86c-.29 0-.567-.115-.772-.32l-5.828-5.814a8.68 8.68 0 0 1-11.81-1.12 8.636 8.636 0 0 1 .374-11.831 8.678 8.678 0 0 1 11.857-.374 8.633 8.633 0 0 1 1.123 11.783h.002Zm-6.853 1.19a6.508 6.508 0 0 0 4.597-1.9 6.478 6.478 0 0 0 0-9.17A6.507 6.507 0 0 0 6.9 6.414a6.478 6.478 0 0 0 0 9.172 6.508 6.508 0 0 0 4.596 1.9Z" fill="#1251B0"/></svg>